<?xml version="1.0"?>
<svg width="171" height="36" xmlns="http://www.w3.org/2000/svg" xmlns:svg="http://www.w3.org/2000/svg">
 <defs>
  <linearGradient id="paint0_linear_120_1360" x1="0.5" x2="0.5" y1="0" y2="1">
   <stop stop-color="#877EFF"/>
   <stop offset="0.46" stop-color="#685DFF"/>
   <stop offset="1" stop-color="#3121FF"/>
  </linearGradient>
 </defs>
 <g class="layer">
  <title>Layer 1</title>
  <path clip-rule="evenodd" d="m27.83,18c0,7.09 -5.74,12.83 -12.83,12.83c-7.09,0 -12.83,-5.74 -12.83,-12.83c0,-7.09 5.74,-12.83 12.83,-12.83c7.09,0 12.83,5.74 12.83,12.83zm2.17,0c0,8.28 -6.72,15 -15,15c-8.28,0 -15,-6.72 -15,-15c0,-8.28 6.72,-15 15,-15c8.28,0 15,6.72 15,15zm-6.72,-6.72c0,0.85 -0.7,1.55 -1.56,1.55c-0.85,0 -1.55,-0.7 -1.55,-1.55c0,-0.86 0.7,-1.56 1.55,-1.56c0.86,0 1.56,0.7 1.56,1.56zm-12.79,7.93c0.67,2.49 3.23,3.97 5.72,3.3c2.49,-0.67 3.97,-3.23 3.3,-5.72c-0.67,-2.49 -3.23,-3.97 -5.72,-3.3c-2.49,0.67 -3.97,3.23 -3.3,5.72zm-2.09,0.56c0.97,3.65 4.72,5.81 8.37,4.83c3.65,-0.97 5.81,-4.72 4.83,-8.37c-0.97,-3.65 -4.72,-5.81 -8.37,-4.83c-3.65,0.97 -5.81,4.72 -4.83,8.37z" fill="url(#paint0_linear_120_1360)" fill-rule="evenodd" id="svg_1"/>
  <text fill="#ffffff" font-family="Sans-serif" font-size="25" font-weight="bold" id="svg_3" stroke-width="0" text-anchor="middle" x="89.5" xml:space="preserve" y="26.5">XeeGram</text>
 </g>
</svg>